#!OML:ASF E:\VariousWalksJay\Project 1\Capture day 1\Session 1\Actor2.ASF
:FULLY-SPECIFIED
:DEGREES
845
root -12.9752 16.5504 40.7994 24.8825 -43.3787 -9.16079
lowerback 20.345 -2.92157 5.65907
upperback 12.7237 -3.36458 -1.8497
thorax 2.09881 -1.48278 -4.56808
lowerneck 0.494744 2.46374 3.18042
upperneck -11.0885 3.57168 1.84784
head -3.65207 1.53545 -0.0605565
rclavicle -1.43125e-014 9.54166e-015
rhumerus -43.2785 13.231 -88.7421
rradius 60.3346
rwrist 16.6029
rhand -45.0585 10.7665
rfingers 7.12502
rthumb -17.8399 -18.4352
lclavicle -1.43125e-014 9.54166e-015
lhumerus 6.26784 -54.55 75.0274
lradius 85.0379
lwrist 29.1767
lhand -32.239 -0.790652
lfingers 7.12502
lthumb -5.47949 29.1185
rfemur -21.4226 6.72801 20.3973
rtibia 58.17
rfoot -1.79763 -18.3306
rtoes -5.21282
lfemur -48.1524 8.18861 -18.9499
ltibia 24.4201
lfoot 3.84058 -0.255417
ltoes -20.194
846
root -13.0188 16.5898 40.9258 25.0483 -43.4245 -9.23043
lowerback 20.0355 -2.91525 5.68159
upperback 12.6298 -3.36168 -1.81278
thorax 2.14946 -1.47926 -4.55032
lowerneck 0.56363 2.49772 3.20398
upperneck -10.9462 3.6113 1.7613
head -3.61247 1.56152 -0.0943149
rclavicle 4.92986e-014 -6.36111e-014
rhumerus -43.5147 13.1943 -88.6391
rradius 59.6588
rwrist 16.7053
rhand -44.9905 10.9189
rfingers 7.12502
rthumb -17.7745 -18.2887
lclavicle 4.92986e-014 -6.36111e-014
lhumerus 4.9871 -54.8513 76.1729
lradius 84.7556
lwrist 28.8992
lhand -32.2891 -0.857759
lfingers 7.12502
lthumb -5.52789 29.0501
rfemur -21.4287 6.68551 20.2475
rtibia 58.0296
rfoot -0.174344 -18.4876
rtoes -4.19217
lfemur -47.781 8.29956 -19.1437
ltibia 24.3596
lfoot 3.61684 -0.347069
ltoes -20.3689
847
root -13.0611 16.627 41.0481 25.1814 -43.475 -9.25543
lowerback 19.7467 -2.90463 5.6588
upperback 12.5391 -3.35939 -1.77702
thorax 2.19495 -1.47872 -4.50741
lowerneck 0.646485 2.52871 3.22143
upperneck -10.8224 3.64843 1.6811
head -3.58237 1.58572 -0.125161
rclavicle 5.24792e-014 -4.21423e-014
rhumerus -43.7514 13.1979 -88.5552
rradius 59.062
rwrist 16.8159
rhand -44.922 11.0135
rfingers 7.12502
rthumb -17.7086 -18.2002
lclavicle 5.24792e-014 -4.21423e-014
lhumerus 3.80712 -55.1018 77.2319
lradius 84.4829
lwrist 28.6402
lhand -32.3273 -0.918595
lfingers 7.12502
lthumb -5.56471 28.9883
rfemur -21.4779 6.62795 20.0679
rtibia 57.9431
rfoot 1.43381 -18.6672
rtoes -3.04859
lfemur -47.4148 8.44008 -19.3912
ltibia 24.2706
lfoot 3.40236 -0.437831
ltoes -20.6025
848
root -13.1021 16.6617 41.1666 25.288 -43.5181 -9.25946
lowerback 19.4847 -2.89337 5.6167
upperback 12.4564 -3.35822 -1.73797
thorax 2.23714 -1.48008 -4.4492
lowerneck 0.731155 2.55518 3.23925
upperneck -10.714 3.68013 1.6032
head -3.55816 1.60665 -0.155247
rclavicle -8.26944e-014 -3.18055e-015
rhumerus -43.9906 13.225 -88.4851
rradius 58.55
rwrist 16.9235
rhand -44.8359 11.0516
rfingers 7.12502
rthumb -17.6257 -18.1695
lclavicle -8.26944e-014 -3.18055e-015
lhumerus 2.73128 -55.3097 78.2065
lradius 84.2267
lwrist 28.4067
lhand -32.3607 -0.97908
lfingers 7.12502
lthumb -5.59698 28.927
rfemur -21.557 6.54482 19.8823
rtibia 57.9107
rfoot 3.02911 -18.8574
rtoes -1.85833
lfemur -47.0426 8.60547 -19.6658
ltibia 24.1558
lfoot 3.19344 -0.543388
ltoes -20.8775
849
root -13.1417 16.6946 41.2818 25.3531 -43.5605 -9.23154
lowerback 19.2519 -2.88079 5.55546
upperback 12.3845 -3.35734 -1.7037
thorax 2.2775 -1.48255 -4.38458
lowerneck 0.811819 2.5731 3.25345
upperneck -10.6164 3.70163 1.54189
head -3.5375 1.62162 -0.17896
rclavicle 6.20208e-014 -1.66979e-014
rhumerus -44.235 13.2548 -88.4319
rradius 58.117
rwrist 17.0219
rhand -44.7372 11.052
rfingers 7.12502
rthumb -17.5307 -18.1776
lclavicle 6.20208e-014 -1.66979e-014
lhumerus 1.76066 -55.4891 79.0896
lradius 83.9929
lwrist 28.2108
lhand -32.3674 -1.01241
lfingers 7.12502
lthumb -5.60345 28.8935
rfemur -21.6487 6.43005 19.6769
rtibia 57.9213
rfoot 4.59196 -19.0433
rtoes -0.636138
lfemur -46.6568 8.79004 -19.9728
ltibia 24.0284
lfoot 2.97645 -0.667207
ltoes -21.1604
850
root -13.1801 16.7255 41.3937 25.3904 -43.6028 -9.19143
lowerback 19.049 -2.86711 5.48228
upperback 12.3243 -3.35596 -1.6712
thorax 2.31646 -1.48551 -4.31453
lowerneck 0.897865 2.58651 3.26366
upperneck -10.5413 3.71851 1.49052
head -3.52612 1.63339 -0.198864
rclavicle 4.77083e-014 -6.44062e-014
rhumerus -44.4804 13.2878 -88.3962
rradius 57.7605
rwrist 17.1125
rhand -44.6176 10.9842
rfingers 7.12502
rthumb -17.4157 -18.2556
lclavicle 4.77083e-014 -6.44062e-014
lhumerus 0.89867 -55.651 79.8732
lradius 83.7828
lwrist 28.0727
lhand -32.329 -0.962417
lfingers 7.12502
lthumb -5.56641 28.9445
rfemur -21.7545 6.29359 19.4674
rtibia 57.9691
rfoot 6.15114 -19.2325
rtoes 0.598171
lfemur -46.2653 8.9914 -20.2893
ltibia 23.904
lfoot 2.74748 -0.807838
ltoes -21.3637
851
root -13.2173 16.7544 41.5034 25.4132 -43.642 -9.15202
lowerback 18.8579 -2.85246 5.42357
upperback 12.2774 -3.35151 -1.64227
thorax 2.36439 -1.48574 -4.25716
lowerneck 0.97647 2.58936 3.27786
upperneck -10.4781 3.72202 1.44982
head -3.5178 1.63759 -0.215516
rclavicle -4.6118e-014 8.98507e-014
rhumerus -44.7215 13.3054 -88.3737
rradius 57.4666
rwrist 17.1957
rhand -44.5092 10.9161
rfingers 7.12502
rthumb -17.3113 -18.333
lclavicle -4.6118e-014 8.98507e-014
lhumerus 0.155714 -55.8109 80.5479
lradius 83.5985
lwrist 27.992
lhand -32.248 -0.833937
lfingers 7.12502
lthumb -5.48821 29.075
rfemur -21.8649 6.13979 19.2595
rtibia 58.0421
rfoot 7.67698 -19.428
rtoes 1.88394
lfemur -45.8735 9.20976 -20.6059
ltibia 23.7934
lfoot 2.4784 -1.01559
ltoes -21.6717
852
root -13.2533 16.781 41.6105 25.4312 -43.6799 -9.12707
lowerback 18.6825 -2.83639 5.38064
upperback 12.2438 -3.34313 -1.61573
thorax 2.41924 -1.48293 -4.21184
lowerneck 1.05854 2.58657 3.29998
upperneck -10.4401 3.71944 1.41546
head -3.51903 1.63749 -0.231551
rclavicle -4.29375e-014 3.65764e-014
rhumerus -44.9515 13.3091 -88.3643
rradius 57.2264
rwrist 17.2759
rhand -44.4049 10.8062
rfingers 7.12502
rthumb -17.2109 -18.4516
lclavicle -4.29375e-014 3.65764e-014
lhumerus -0.471504 -55.9684 81.1137
lradius 83.4405
lwrist 27.9575
lhand -32.1397 -0.641396
lfingers 7.12502
lthumb -5.38359 29.2702
rfemur -21.9827 5.98406 19.0636
rtibia 58.1377
rfoot 9.17354 -19.6344
rtoes 3.18613
lfemur -45.4879 9.44393 -20.9084
ltibia 23.7077
lfoot 2.18455 -1.25976
ltoes -22.0741
853
root -13.288 16.8057 41.7155 25.4468 -43.7212 -9.11139
lowerback 18.5158 -2.8181 5.3537
upperback 12.2209 -3.33006 -1.59532
thorax 2.48147 -1.47648 -4.18299
lowerneck 1.13866 2.57705 3.3374
upperneck -10.4194 3.70873 1.38243
head -3.52581 1.63223 -0.249647
rclavicle -2.70347e-014 2.06736e-014
rhumerus -45.164 13.2968 -88.3703
rradius 57.0336
rwrist 17.3359
rhand -44.3006 10.6745
rfingers 7.12502
rthumb -17.1105 -18.5921
lclavicle -2.70347e-014 2.06736e-014
lhumerus -0.988397 -56.1332 81.5728
lradius 83.3029
lwrist 27.9504
lhand -32.0368 -0.432471
lfingers 7.12502
lthumb -5.28424 29.4816
rfemur -22.1123 5.82274 18.8722
rtibia 58.2478
rfoot 10.6587 -19.8325
rtoes 4.40859
lfemur -45.1183 9.68959 -21.2
ltibia 23.6569
lfoot 1.86789 -1.52108
ltoes -22.4972
